<svg version="1.1" id="Layer_1" xmlns="http://www.w3.org/2000/svg" xmlns:xlink="http://www.w3.org/1999/xlink" x="0px" y="0px"
	 width="100%" viewBox="0 0 1024 1024" enable-background="new 0 0 1024 1024" xml:space="preserve">
<path fill="#000000" opacity="1.000000" stroke="none" 
	d="
M848.510559,750.468018 
	C832.617065,772.612854 815.028381,792.819519 795.492371,811.298706 
	C763.428101,841.628479 727.582703,866.470520 687.590576,885.269531 
	C667.528442,894.700195 646.897583,902.690369 625.535095,908.506348 
	C606.019653,913.819397 586.313110,918.271423 566.083618,920.507385 
	C546.699524,922.649902 527.333435,924.579834 507.851013,924.093201 
	C479.365540,923.381836 451.145508,920.290771 423.258728,914.037598 
	C383.513885,905.125427 345.969299,890.700134 310.640503,870.492065 
	C259.447876,841.209900 216.460907,802.712708 181.483002,755.239929 
	C156.927216,721.912292 137.920349,685.663635 124.420540,646.554077 
	C116.893684,624.748352 111.577972,602.385864 107.744217,579.617981 
	C103.806274,556.231445 101.874748,532.677612 102.237694,509.050903 
	C102.564423,487.781738 104.001053,466.524994 107.772041,445.463715 
	C111.927719,422.253937 117.315926,399.420288 125.147766,377.162415 
	C136.359467,345.299011 151.256027,315.284760 169.938828,287.152649 
	C200.744736,240.765854 239.424271,202.196869 285.503601,171.009460 
	C311.258453,153.578094 338.762207,139.384125 367.802460,128.408234 
	C397.868988,117.044456 428.976654,109.664619 460.932648,105.567902 
	C493.325348,101.415192 525.669861,101.161461 558.062866,104.700294 
	C583.049866,107.430038 607.664551,112.287041 631.710571,119.628990 
	C668.168213,130.760544 702.582458,146.422607 734.605652,167.196716 
	C779.558899,196.358887 817.606689,232.675705 848.717163,276.374634 
	C867.747314,303.105103 883.283936,331.696686 895.351990,362.099091 
	C902.015320,378.885529 907.336914,396.167786 911.687622,413.804840 
	C917.968018,439.264496 921.454773,464.980591 923.304871,491.084351 
	C925.081177,516.145874 923.151794,540.922913 920.411682,565.775574 
	C916.113098,604.762695 905.348450,641.958740 889.865723,677.810669 
	C878.817505,703.393982 864.993103,727.510315 848.510559,750.468018 
M687.012695,197.578827 
	C685.718201,196.827042 684.444641,196.036148 683.126099,195.329254 
	C656.900024,181.269363 629.355652,170.710327 600.427368,163.635788 
	C574.955994,157.406631 549.205322,153.475189 522.967957,153.157745 
	C507.149048,152.966339 491.379272,153.355576 475.573547,154.945679 
	C449.793823,157.539154 424.621277,162.832382 400.156281,170.998337 
	C369.102203,181.363617 339.841949,195.628738 312.579956,213.952576 
	C276.236450,238.380432 245.250793,268.321228 219.886154,303.929108 
	C196.456116,336.821136 179.011078,372.694702 167.572784,411.539429 
	C159.540497,438.817261 154.912735,466.646729 153.429642,494.907959 
	C151.970596,522.710999 153.714813,550.401672 158.865295,577.909424 
	C164.184372,606.317566 172.180038,633.847839 184.102798,660.112061 
	C207.672409,712.032288 241.438232,756.181213 285.675812,792.373047 
	C319.966553,820.427063 358.156708,841.304321 400.016968,855.329773 
	C428.255615,864.791382 457.461761,870.605896 487.173462,872.511169 
	C519.626038,874.592163 552.027100,872.860901 583.991150,866.343750 
	C606.338318,861.787292 628.159485,855.259644 649.256531,846.577454 
	C690.972717,829.409912 728.246155,805.283447 761.020874,774.259827 
	C791.814575,745.111206 816.364075,711.309387 835.569702,673.595215 
	C848.523010,648.158813 857.863647,621.340271 864.253357,593.580322 
	C867.710632,578.559937 869.920654,563.264404 871.484131,547.871948 
	C874.734802,515.869568 873.338562,484.011658 868.333435,452.373688 
	C866.088196,438.181335 862.227051,424.228760 858.264282,410.321289 
	C850.705505,383.793304 839.804260,358.780792 826.223938,334.922974 
	C807.223511,301.543030 783.538330,271.888336 754.890686,246.151276 
	C734.219238,227.580109 711.987122,211.332733 687.012695,197.578827 
z"/>
<path fill="#000000" opacity="1.000000" stroke="none" 
	d="
M243.344177,431.278198 
	C260.487091,420.224823 279.081299,415.181549 298.965851,415.095093 
	C336.123901,414.933502 373.283508,415.002869 410.441528,415.174927 
	C414.062500,415.191681 415.268799,413.930237 415.281708,410.701996 
	C415.327667,399.219849 415.491089,387.736694 415.396088,376.255707 
	C415.149384,346.444672 413.362183,316.552368 415.951996,286.848389 
	C419.300812,248.438904 445.812256,215.724609 483.129761,203.553146 
	C535.873352,186.350327 590.044312,216.390152 606.410278,267.780548 
	C609.304016,276.867096 610.879822,286.289337 610.932312,295.769989 
	C611.140076,333.260773 611.010376,370.753448 610.994873,408.245422 
	C610.991882,415.385498 610.968750,415.466003 618.105713,415.489136 
	C644.075256,415.573212 670.044922,415.605652 696.014587,415.643066 
	C708.012085,415.660370 720.010071,415.575989 732.007080,415.655701 
	C772.485779,415.924652 810.218750,444.267975 822.649841,482.871552 
	C837.384460,528.628845 817.160828,575.745544 777.497559,598.280334 
	C762.742371,606.663452 746.716370,610.928040 729.810120,611.033569 
	C692.486084,611.266663 655.159607,611.104126 617.834167,611.118591 
	C611.203003,611.121155 611.141602,611.155823 611.137512,617.778381 
	C611.113892,655.603638 611.613892,693.437134 610.982971,731.251953 
	C610.332581,770.232300 586.167603,805.495361 549.357971,820.470703 
	C533.751099,826.820190 517.586548,829.183350 501.383759,826.824219 
	C465.391815,821.583679 439.141235,802.195496 423.796844,768.855774 
	C417.655609,755.512390 415.463531,741.411255 415.521759,726.709717 
	C415.624725,700.722778 415.840668,674.733398 415.330048,648.739990 
	C415.124573,638.278625 415.313782,627.778503 415.384399,617.297302 
	C415.416656,612.510742 413.692810,610.991455 408.945679,611.008423 
	C371.953918,611.140503 334.952545,611.553650 297.971619,610.896179 
	C262.072205,610.257996 233.349579,595.233459 213.762970,564.615417 
	C198.502029,540.759277 194.874207,514.670349 202.214569,487.538147 
	C208.611542,463.892975 222.400314,445.046997 243.344177,431.278198 
M466.193298,593.512939 
	C466.206360,639.000427 466.117920,684.488281 466.266357,729.975342 
	C466.374237,763.033752 498.897125,785.226013 529.921509,773.731445 
	C545.998230,767.774963 559.794861,751.255066 559.784119,731.140320 
	C559.758545,683.485413 559.792603,635.830566 559.812012,588.175659 
	C559.818970,570.963257 571.052246,559.853210 588.336975,559.849365 
	C635.991943,559.838867 683.647095,559.746582 731.301758,559.853210 
	C736.437805,559.864685 741.383789,558.819641 745.885315,557.061829 
	C771.034973,547.240723 780.792725,525.130493 775.368347,500.806366 
	C770.964233,481.057007 751.417603,466.264709 731.034363,466.248077 
	C683.046082,466.208954 635.057861,466.227905 587.069580,466.224182 
	C571.387634,466.222961 559.841492,454.843842 559.833069,439.285278 
	C559.807251,391.463684 559.743408,343.641876 559.898193,295.820801 
	C559.916443,290.189697 559.197754,284.614471 557.182495,279.692322 
	C547.114929,255.103226 523.386169,244.472015 499.944122,251.330246 
	C478.095337,257.722321 466.224854,274.937592 466.212830,297.696045 
	C466.188049,344.684540 465.833435,391.677429 466.396729,438.659149 
	C466.588623,454.664612 452.779663,466.527649 438.761749,466.393616 
	C391.944183,465.945892 345.119568,466.263031 298.297943,466.162231 
	C292.568726,466.149872 286.986420,466.589905 281.584961,468.467926 
	C254.563324,477.862946 245.428650,502.460541 251.054703,525.419067 
	C256.189850,546.374268 275.220795,560.247070 298.282867,560.008789 
	C345.266327,559.523499 392.258331,559.850647 439.246796,559.867798 
	C451.635956,559.872253 460.824860,566.578735 465.048645,578.179321 
	C466.779449,582.933044 465.890411,587.737976 466.193298,593.512939 
z"/>
</svg>