<?xml version="1.0" standalone="no"?>
<!DOCTYPE svg PUBLIC "-//W3C//DTD SVG 20010904//EN"
 "http://www.w3.org/TR/2001/REC-SVG-20010904/DTD/svg10.dtd">
<svg version="1.0" xmlns="http://www.w3.org/2000/svg"
 width="259.000000pt" height="194.000000pt" viewBox="0 0 259.000000 194.000000"
 preserveAspectRatio="xMidYMid meet">
<metadata>
Created by potrace 1.10, written by Peter Selinger 2001-2011
</metadata>
<g transform="translate(0.000000,194.000000) scale(0.100000,-0.100000)"
fill="#000000" stroke="none">
<path d="M1172 1626 c-40 -8 -92 -22 -115 -31 -64 -25 -152 -78 -139 -83 7 -2
9 -9 5 -15 -4 -7 1 -6 10 2 9 7 15 17 12 21 -5 7 63 42 79 40 5 -1 12 3 16 9
3 7 24 14 46 16 21 3 45 6 52 7 6 1 12 5 12 10 0 17 16 7 17 -11 1 -11 -6 -22
-15 -24 -13 -4 -13 -5 -2 -6 12 -1 14 -13 11 -63 -1 -35 -8 -66 -15 -70 -6 -4
-6 -8 -1 -8 31 0 40 21 43 99 4 75 5 80 29 86 14 3 26 5 28 3 1 -2 12 -32 25
-67 l23 -63 23 62 c12 34 24 63 25 65 2 2 16 1 32 -2 l27 -5 0 -90 c0 -78 -2
-89 -16 -84 -9 3 -18 6 -20 6 -2 0 -4 28 -5 63 l0 62 -22 -60 c-17 -46 -27
-61 -44 -63 -19 -3 -25 5 -42 60 l-20 63 0 -62 c-1 -60 -2 -62 -31 -68 -38 -8
-48 -23 -12 -19 18 3 13 -1 -13 -10 -72 -24 -140 -63 -193 -111 -29 -26 -52
-43 -52 -39 0 4 -11 -3 -24 -15 l-25 -23 -65 53 c-35 30 -65 56 -65 59 -2 14
118 130 133 130 10 0 22 -12 29 -30 9 -23 16 -28 33 -24 16 4 26 0 33 -14 17
-32 13 -49 -20 -87 -18 -20 -29 -38 -27 -41 3 -3 20 13 37 34 42 54 43 107 4
124 -16 7 -39 23 -52 36 -14 13 -31 20 -40 17 -9 -3 -5 4 9 16 17 14 21 22 12
26 -6 2 -9 10 -6 15 4 7 2 8 -5 4 -6 -4 -9 -11 -6 -15 8 -13 -32 -44 -47 -35
-7 4 -10 4 -6 0 4 -5 -17 -37 -47 -73 -104 -126 -155 -269 -155 -434 0 -147
44 -282 131 -396 46 -61 50 -76 11 -42 -15 13 -2 -2 28 -34 30 -31 60 -55 66
-53 6 2 24 -5 40 -15 209 -143 483 -159 707 -42 98 51 219 172 270 270 100
193 103 423 7 614 -33 65 -36 73 -17 63 7 -4 9 -3 4 2 -5 5 -12 9 -16 9 -10 0
-111 110 -111 121 0 4 21 -12 48 -36 l47 -45 -50 53 c-50 54 -116 108 -100 83
5 -9 3 -12 -6 -9 -8 3 -13 11 -11 17 1 7 -2 10 -7 7 -5 -4 -40 9 -78 28 -131
66 -283 88 -421 62z m268 -37 c0 -5 11 -9 24 -9 32 0 57 -10 51 -20 -3 -5 0
-12 6 -16 8 -4 9 -3 5 4 -10 16 7 15 49 -2 19 -8 35 -20 35 -26 0 -7 9 -9 23
-5 16 4 18 4 8 -3 -11 -8 -10 -12 7 -21 27 -14 35 -14 26 2 -4 6 -3 8 1 4 12
-10 15 -38 4 -31 -5 3 -9 0 -9 -6 0 -6 -5 -8 -10 -5 -6 4 -10 3 -9 -2 4 -20
-2 -24 -18 -12 -15 11 -16 11 -5 -1 15 -17 16 -34 1 -25 -6 4 -13 -2 -16 -14
-3 -12 -10 -21 -15 -21 -5 0 -7 -4 -4 -9 3 -4 -2 -15 -12 -24 -14 -13 -20 -13
-34 -3 -10 7 -14 17 -10 21 4 5 2 5 -4 2 -7 -4 -33 1 -58 10 -34 13 -45 22
-41 33 5 12 4 13 -6 3 -16 -16 -33 -17 -23 -2 4 7 6 46 5 87 -2 53 1 77 11 83
10 7 10 9 1 9 -7 0 -13 4 -13 10 0 5 7 7 15 4 8 -4 15 -10 15 -15z m280 -149
c12 -7 9 -16 -18 -49 -18 -23 -31 -41 -29 -41 3 0 24 9 48 19 31 14 47 17 56
9 20 -16 16 -30 -18 -71 -17 -20 -28 -37 -26 -37 2 0 24 11 49 25 43 24 44 24
56 5 11 -18 6 -22 -65 -55 -42 -19 -77 -34 -77 -33 -1 2 -7 10 -14 19 -10 13
-7 23 18 58 17 22 28 41 26 41 -2 0 -24 -9 -49 -19 -40 -17 -46 -18 -60 -4
-14 14 -10 22 31 79 49 68 49 69 72 54z m-346 -51 c124 -23 245 -107 300 -209
123 -227 34 -492 -202 -603 -120 -56 -268 -48 -395 21 -56 30 -138 116 -169
176 -126 247 14 546 287 612 64 16 108 17 179 3z m-618 -115 c-4 -12 -2 -15 9
-10 9 3 15 0 15 -10 0 -8 4 -12 10 -9 5 3 19 -9 30 -27 11 -18 20 -27 20 -20
0 10 4 10 20 0 16 -10 23 -9 45 12 l27 25 -18 -32 c-10 -17 -23 -29 -28 -26
-5 3 -7 2 -3 -3 3 -5 -3 -35 -14 -67 -11 -31 -21 -96 -24 -142 -2 -47 -7 -90
-10 -95 -3 -6 1 -7 10 -4 10 4 14 2 10 -8 -3 -8 4 -36 15 -63 11 -27 19 -54
16 -62 -3 -7 0 -12 7 -10 7 1 12 -7 12 -18 0 -33 14 -46 35 -35 16 8 18 8 14
-5 -4 -8 -1 -15 6 -15 7 0 10 -7 6 -16 -9 -24 3 -36 24 -24 16 9 18 8 14 -5
-5 -11 -2 -13 10 -9 9 3 16 1 16 -5 0 -7 8 -14 18 -18 9 -3 29 -15 45 -25 15
-11 27 -17 27 -14 0 3 12 0 28 -6 63 -26 282 -23 282 4 0 5 5 6 10 3 12 -7 70
16 70 27 0 5 5 8 11 8 7 0 18 8 26 18 8 9 11 10 7 2 -10 -19 62 38 97 77 30
33 77 113 82 140 2 10 10 32 17 48 12 30 16 141 7 180 -3 11 -6 30 -6 43 -1
15 -5 21 -13 16 -7 -4 -8 -3 -4 5 4 6 2 18 -4 26 -7 8 -10 21 -7 29 4 11 1 13
-11 10 -13 -5 -14 -4 -3 4 8 6 10 15 6 23 -5 8 5 3 21 -11 16 -14 23 -18 17
-10 -13 14 -19 39 -7 27 3 -3 11 -2 18 4 28 23 87 58 80 47 -5 -7 -2 -9 8 -5
22 8 30 -3 15 -21 -8 -10 -8 -13 -1 -9 11 6 29 -18 26 -34 -1 -3 7 -33 16 -65
25 -83 21 -226 -8 -319 -12 -38 -26 -74 -31 -79 -5 -6 -9 -16 -9 -24 0 -14
-38 -69 -78 -114 -15 -16 -21 -31 -16 -40 4 -7 4 -10 -1 -6 -4 4 -26 -8 -49
-28 -53 -45 -54 -46 -96 -70 -19 -10 -38 -23 -42 -29 -4 -5 -8 -6 -8 -1 0 5
-10 1 -22 -10 -12 -10 -18 -13 -13 -5 5 9 -1 7 -19 -4 -14 -10 -26 -14 -26
-10 0 4 -6 3 -13 -3 -6 -6 -53 -15 -103 -21 -99 -11 -212 0 -272 24 -18 8 -30
10 -27 5 3 -6 1 -10 -4 -10 -6 0 -11 4 -11 8 0 5 -24 19 -52 33 -29 13 -60 31
-69 39 -9 8 -36 29 -59 45 -24 17 -56 50 -71 74 -16 25 -29 41 -29 36 0 -5 -7
1 -16 13 -8 12 -12 27 -8 34 4 6 3 8 -2 5 -13 -7 -41 43 -39 70 1 13 -3 19 -8
16 -6 -4 -8 0 -4 10 4 12 2 14 -10 10 -13 -5 -14 -3 -3 17 7 12 8 20 2 16 -5
-3 -13 1 -16 10 -4 9 -2 13 5 8 6 -3 4 5 -5 19 -13 20 -14 26 -4 30 10 4 10 7
-1 15 -28 20 0 311 32 333 5 3 8 10 7 14 -3 8 38 65 46 65 4 0 3 -7 0 -16z
m98 -803 c31 -34 3 -24 -30 10 -21 23 -23 29 -9 21 11 -5 29 -20 39 -31z"/>
<path d="M1279 1243 c-1 -76 -1 -164 -1 -195 l1 -58 -199 0 c-186 0 -236 -7
-179 -25 25 -8 362 4 377 14 16 10 29 386 13 395 -8 5 -11 -30 -12 -131z"/>
<path d="M1661 1167 c-1 -5 4 -17 10 -28 6 -12 17 -48 25 -82 13 -58 14 -59 9
-14 -4 42 -42 147 -44 124z"/>
<path d="M1303 1030 c0 -36 2 -50 4 -32 2 17 2 47 0 65 -2 17 -4 3 -4 -33z"/>
<path d="M1335 980 c-13 -5 51 -9 172 -9 105 -1 194 3 197 8 7 11 -343 13
-369 1z"/>
<path d="M1284 760 c0 -113 2 -159 3 -102 2 56 2 148 0 205 -1 56 -3 10 -3
-103z"/>
<path d="M1310 756 l0 -199 49 6 c105 12 238 104 297 205 14 24 24 45 21 48
-2 2 -16 -18 -31 -46 -16 -29 -32 -48 -38 -44 -6 4 -8 2 -5 -3 18 -29 -151
-135 -237 -149 l-39 -6 5 46 c3 25 3 46 -1 46 -5 0 -7 157 -3 249 l2 34 168
-5 c166 -6 207 -12 196 -29 -3 -5 -7 -26 -9 -47 l-3 -37 13 40 c7 22 14 52 14
67 l1 27 -200 -2 -200 -1 0 -200z"/>
<path d="M827 1365 c-27 -33 -27 -34 -8 -44 17 -10 24 -6 46 24 45 58 10 77
-38 20z"/>
<path d="M909 1348 c-1 -7 -1 -17 0 -21 1 -5 -3 -6 -7 -3 -5 3 -18 -4 -28 -15
-18 -20 -18 -21 0 -34 16 -12 21 -10 48 21 17 19 28 40 24 49 -7 18 -36 20
-37 3z"/>
</g>
</svg>
