<?xml version="1.0" standalone="no"?>
<!DOCTYPE svg PUBLIC "-//W3C//DTD SVG 20010904//EN"
 "http://www.w3.org/TR/2001/REC-SVG-20010904/DTD/svg10.dtd">
<svg version="1.0" xmlns="http://www.w3.org/2000/svg"
 width="300.000000pt" height="240.000000pt" viewBox="0 0 300.000000 240.000000"
 preserveAspectRatio="xMidYMid meet">
<metadata>
Created by potrace 1.10, written by Peter Selinger 2001-2011
</metadata>
<g transform="translate(0.000000,240.000000) scale(0.100000,-0.100000)"
fill="#000000" stroke="none">
<path d="M1230 1554 c-150 -26 -201 -41 -299 -91 -130 -67 -195 -83 -338 -83
-110 0 -135 -7 -115 -33 23 -30 22 -68 -4 -129 -22 -52 -25 -72 -20 -119 9
-90 7 -89 97 -89 78 0 79 0 79 25 0 85 84 176 180 196 l35 7 -42 1 c-24 0 -66
-8 -95 -19 -34 -13 -77 -20 -122 -20 l-68 0 16 25 c9 13 16 37 16 54 0 36 12
41 120 48 74 5 102 1 212 -26 70 -18 176 -38 235 -46 143 -18 369 -27 413 -17
28 7 13 10 -75 15 -217 13 -437 57 -538 108 l-41 22 44 23 c25 13 81 36 125
51 75 26 91 27 255 28 194 0 306 -18 464 -76 44 -16 81 -27 83 -25 15 14 -219
117 -334 147 -74 18 -234 32 -283 23z m-647 -387 c20 -2 38 -5 42 -8 9 -10
-32 -96 -50 -103 -52 -20 -85 7 -85 68 0 50 5 58 35 50 12 -3 38 -6 58 -7z"/>
<path d="M1017 1340 c13 -12 158 -39 268 -50 55 -5 294 -10 531 -10 471 0 513
-4 596 -54 58 -35 103 -104 124 -190 l12 -51 1 51 c1 80 -24 150 -75 204 -95
101 -202 118 -629 100 -327 -13 -707 -14 -783 -2 -29 5 -50 6 -45 2z"/>
<path d="M2106 1225 c-22 -8 -51 -22 -65 -33 -23 -17 -73 -102 -85 -144 -5
-17 -33 -18 -406 -18 l-400 0 -10 25 c-19 50 -65 107 -105 131 -55 32 -79 31
-37 -2 41 -32 71 -91 79 -152 l5 -47 474 0 474 0 0 36 c0 76 47 160 103 184
18 7 43 18 57 23 24 10 24 11 -10 11 -19 0 -53 -6 -74 -14z"/>
<path d="M775 1162 c-74 -46 -105 -117 -85 -191 39 -147 234 -174 308 -43 44
79 23 171 -50 225 -40 30 -133 34 -173 9z m136 -33 c44 -23 63 -52 66 -103 5
-63 -21 -110 -72 -132 -46 -19 -61 -18 -111 6 -94 46 -93 176 1 228 26 15 91
15 116 1z"/>
<path d="M2159 1157 c-75 -50 -101 -143 -62 -224 34 -72 130 -108 208 -78 140
53 147 241 13 311 -42 22 -119 18 -159 -9z m150 -31 c83 -44 87 -169 6 -222
-85 -56 -195 3 -197 105 0 45 32 103 67 120 30 15 92 13 124 -3z"/>
</g>
</svg>
