<?xml version="1.0" standalone="no"?>
<!DOCTYPE svg PUBLIC "-//W3C//DTD SVG 20010904//EN"
 "http://www.w3.org/TR/2001/REC-SVG-20010904/DTD/svg10.dtd">
<svg version="1.0" xmlns="http://www.w3.org/2000/svg"
 width="300.000000pt" height="300.000000pt" viewBox="0 0 300.000000 300.000000"
 preserveAspectRatio="xMidYMid meet">
<metadata>
Created by potrace 1.10, written by Peter Selinger 2001-2011
</metadata>
<g transform="translate(0.000000,300.000000) scale(0.100000,-0.100000)"
fill="#000000" stroke="none">
<path d="M1355 2106 c-58 -26 -105 -99 -105 -162 0 -23 -4 -24 -60 -24 -110 0
-309 -54 -435 -118 -153 -77 -299 -204 -348 -302 -36 -72 -38 -161 -4 -211 30
-46 100 -80 171 -82 l56 -2 19 -65 c11 -36 23 -77 26 -93 9 -34 33 -41 125
-35 64 3 69 2 74 -18 8 -31 53 -82 87 -99 81 -43 205 11 224 97 l7 28 406 0
407 -1 22 -47 c51 -109 188 -125 267 -32 14 18 29 42 32 56 6 24 6 24 144 24
93 0 141 4 146 11 12 20 4 283 -9 296 -7 6 -136 36 -288 66 l-276 54 -119 75
-119 75 -346 -3 -346 -3 -253 -105 c-140 -58 -258 -110 -264 -116 -7 -7 -6
-24 1 -52 6 -24 9 -45 7 -47 -3 -3 -30 2 -61 10 -129 33 -131 144 -5 280 143
155 386 264 658 294 l52 5 7 -37 c9 -52 50 -102 101 -125 35 -15 62 -18 136
-16 l93 3 5 49 5 49 80 1 c76 1 80 2 83 25 5 33 -12 41 -90 41 l-68 0 0 48 0
47 76 0 c61 0 79 3 87 17 21 32 -8 48 -89 48 l-74 0 0 49 c0 35 -4 51 -16 55
-30 11 -198 5 -229 -8z m175 -206 l0 -150 -71 0 c-67 0 -73 2 -105 34 -33 33
-34 37 -34 111 0 125 26 154 138 155 l72 0 0 -150z m60 69 c0 -8 -7 -24 -15
-35 -13 -17 -14 -13 -14 46 1 63 1 64 14 35 8 -16 14 -37 15 -46z m-304 -105
c-8 -21 -36 -5 -36 22 0 12 8 27 18 33 14 8 18 5 20 -15 2 -14 1 -32 -2 -40z
m293 -45 c1 -15 -5 -31 -11 -37 -10 -8 -12 2 -9 46 2 41 6 51 12 37 4 -11 8
-32 8 -46z m-119 -259 c0 -7 6 -7 20 0 24 13 24 12 3 -36 l-16 -39 -10 33 c-5
17 -14 32 -18 32 -5 0 -9 5 -9 10 0 6 7 10 15 10 8 0 15 -5 15 -10z m-30 -105
l0 -75 -250 0 -250 0 -12 25 c-6 14 -9 27 -7 28 2 2 54 24 114 49 l110 46 148
1 147 1 0 -75z m451 13 c54 -33 99 -67 99 -75 0 -10 -46 -13 -240 -13 l-240 0
0 75 0 75 141 0 141 0 99 -62z m-981 -11 c0 -7 -6 -22 -14 -33 -12 -15 -17
-17 -27 -6 -16 15 -33 16 -23 0 4 -7 3 -8 -5 -4 -15 10 3 34 34 46 29 12 35
12 35 -3z m1114 -34 c18 7 40 -8 32 -21 -14 -22 -57 8 -55 38 1 10 3 9 6 -3 3
-10 10 -16 17 -14z m-1148 -65 l19 -43 563 -3 563 -2 19 33 19 32 251 -49 250
-50 0 -77 c0 -43 3 -84 6 -93 5 -14 -9 -16 -114 -16 l-120 0 -10 29 c-16 45
-80 83 -141 83 -27 -1 -63 -8 -80 -16 -30 -16 -71 -65 -71 -85 0 -8 -72 -11
-237 -11 -131 0 -318 -3 -415 -7 l-176 -6 -15 36 c-22 51 -80 87 -140 87 -26
0 -63 -6 -81 -14 -35 -15 -76 -63 -76 -90 0 -13 -13 -16 -75 -16 -65 0 -75 2
-75 18 0 9 -15 66 -34 125 l-34 109 26 9 c15 6 52 21 82 34 30 13 60 24 66 24
6 1 19 -18 30 -41z m634 -10 c0 -5 -16 -8 -35 -8 -38 0 -46 13 -17 29 9 6 13
11 9 11 -5 0 -5 5 -1 11 4 8 13 4 25 -12 10 -13 19 -27 19 -31z m-849 -75 c1
-10 1 -24 0 -30 -1 -7 3 -13 9 -13 5 0 10 -7 10 -15 0 -8 -4 -15 -10 -15 -5 0
-10 5 -10 11 0 5 -13 15 -30 20 -25 9 -28 13 -16 25 8 8 20 14 26 14 6 0 8 5
5 10 -3 6 -1 10 4 10 6 0 12 -8 12 -17z m1941 -180 c-10 -30 -17 -9 -13 35 5
46 5 47 11 12 3 -19 4 -41 2 -47z m-1511 24 c29 -20 34 -29 37 -70 4 -62 -27
-97 -86 -97 -98 0 -130 128 -44 174 37 21 54 20 93 -7z m1129 8 c36 -19 50
-43 50 -90 0 -77 -95 -115 -154 -60 -51 47 -28 142 39 158 33 8 35 8 65 -8z
m104 -51 c8 -21 -3 -56 -15 -49 -12 8 -12 65 0 65 5 0 12 -7 15 -16z m-1410
-56 c-6 -10 -34 16 -34 32 0 6 5 8 10 5 6 -3 10 2 11 12 0 10 4 6 9 -11 5 -16
7 -33 4 -38z m267 55 c0 -5 2 -18 3 -30 4 -33 -10 -28 -23 7 -8 24 -7 30 5 30
7 0 14 -3 15 -7z m871 -23 c-4 -25 -7 -28 -23 -19 -23 12 -23 13 -3 33 23 24
31 19 26 -14z"/>
</g>
</svg>
