<?xml version="1.0" standalone="no"?>
<!DOCTYPE svg PUBLIC "-//W3C//DTD SVG 20010904//EN"
 "http://www.w3.org/TR/2001/REC-SVG-20010904/DTD/svg10.dtd">
<svg version="1.0" xmlns="http://www.w3.org/2000/svg"
 width="300.000000pt" height="240.000000pt" viewBox="0 0 300.000000 240.000000"
 preserveAspectRatio="xMidYMid meet">
<metadata>
Created by potrace 1.10, written by Peter Selinger 2001-2011
</metadata>
<g transform="translate(0.000000,240.000000) scale(0.100000,-0.100000)"
fill="#000000" stroke="none">
<path d="M1198 1549 c-105 -15 -180 -40 -287 -94 -125 -63 -175 -75 -321 -75
-60 0 -111 -4 -114 -9 -3 -4 2 -26 10 -48 15 -38 15 -42 -10 -101 -28 -66 -32
-115 -15 -174 l10 -38 79 0 c79 0 80 0 80 25 0 37 27 95 58 128 32 34 68 54
119 66 l38 9 -43 1 c-23 1 -68 -8 -99 -19 -34 -12 -83 -20 -120 -20 l-63 0 15
24 c9 14 17 38 17 55 1 28 5 31 50 40 81 18 157 13 278 -19 63 -16 167 -36
230 -44 148 -19 385 -29 430 -18 28 7 11 10 -82 15 -225 13 -439 57 -541 109
l-42 21 70 33 c122 58 181 69 365 69 183 0 301 -20 454 -76 44 -16 81 -27 83
-25 9 8 -125 75 -218 110 -157 58 -293 75 -431 55z m-620 -386 c47 -6 47 -6
31 -54 -19 -57 -69 -78 -103 -43 -29 28 -18 121 13 108 9 -3 35 -9 59 -11z"/>
<path d="M1017 1340 c13 -12 158 -39 268 -50 55 -5 294 -10 532 -10 280 0 451
-4 485 -11 128 -27 194 -93 233 -232 l15 -52 -3 75 c-4 87 -26 136 -84 192
-80 78 -209 104 -458 94 -311 -12 -882 -18 -938 -8 -32 5 -55 6 -50 2z"/>
<path d="M2083 1216 c-55 -26 -94 -73 -117 -141 l-13 -36 -403 0 -402 -1 -19
39 c-32 68 -102 133 -143 133 -19 -1 -18 -3 7 -21 40 -30 77 -100 84 -158 l6
-51 472 0 472 0 6 55 c10 95 79 185 143 185 13 0 26 5 29 10 12 19 -70 10
-122 -14z"/>
<path d="M767 1157 c-124 -75 -108 -251 29 -303 77 -29 174 8 207 79 74 154
-92 311 -236 224z m174 -56 c33 -32 39 -45 39 -80 0 -61 -24 -99 -76 -122 -55
-25 -110 -13 -147 31 -35 41 -41 79 -21 130 21 52 63 80 123 80 37 0 49 -6 82
-39z"/>
<path d="M2159 1157 c-75 -50 -101 -143 -62 -224 34 -72 130 -108 208 -78 136
51 150 234 24 304 -51 29 -126 28 -170 -2z m155 -36 c40 -27 55 -57 56 -113 0
-58 -34 -103 -90 -118 -84 -23 -160 37 -160 128 0 38 5 50 39 83 33 33 45 39
82 39 27 0 56 -8 73 -19z"/>
</g>
</svg>
