<svg xmlns="http://www.w3.org/2000/svg" width="474" height="474" viewBox="0 0 474 474" version="1.1">
	<path d="M 280.500 53.920 C 271.158 56.452, 265.182 59.123, 258.111 63.924 C 246.888 71.546, 237.043 84.955, 232.358 99 C 230.625 104.196, 230.494 112.100, 229.998 242 C 229.533 363.565, 229.290 380.021, 227.900 384 C 222.551 399.307, 212.817 410.924, 200.678 416.485 C 190.226 421.275, 185.184 422, 162.345 422 C 139.671 422, 134.159 421.128, 123.817 415.908 C 115.172 411.543, 106.056 402.092, 101.725 393 C 99.759 388.875, 97.667 382.830, 97.076 379.566 C 96.476 376.260, 96 361.335, 96 345.863 L 96 318.094 100.372 316.159 C 106.411 313.488, 112.653 307.587, 115.808 301.563 C 119.352 294.800, 119.595 282.950, 116.336 275.851 C 113.608 269.909, 107.693 264, 101.423 260.954 C 94.579 257.630, 83.594 257.570, 76.500 260.819 C 69.840 263.869, 62.592 271.702, 60.443 278.172 C 57.972 285.612, 58.827 296.322, 62.375 302.378 C 66.007 308.575, 71.266 313.501, 76.586 315.688 L 80.993 317.500 81.022 342 C 81.038 355.475, 81.472 370.817, 81.985 376.093 C 83.614 392.832, 89.566 405.441, 101.567 417.582 C 107.128 423.208, 110.646 425.724, 118.067 429.388 C 131.265 435.902, 137.415 436.962, 162.162 436.983 C 186.198 437.003, 194.194 435.819, 205.589 430.554 C 222.034 422.956, 234.212 409.549, 240.795 391.795 L 243.500 384.500 244.030 246.500 C 244.454 136.178, 244.825 107.698, 245.877 104.500 C 251.807 86.490, 267.660 71.665, 284.799 68.102 C 287.737 67.491, 300.026 67, 312.374 67 C 333.542 67, 335.019 67.125, 342.075 69.517 C 358.215 74.988, 368.979 85.823, 375.291 102.952 C 377.115 107.900, 377.382 111.425, 377.761 135.567 L 378.185 162.634 371.649 165.852 C 349.698 176.658, 349.382 207.337, 371.101 218.998 C 376.791 222.054, 378.331 222.431, 385 222.403 C 390.818 222.378, 393.612 221.834, 397.458 219.978 C 414.829 211.592, 420.366 190.680, 409.404 174.861 C 406.337 170.436, 399.808 165.492, 395.654 164.449 C 394.194 164.083, 393.012 163.269, 393.026 162.642 C 393.040 162.014, 392.868 149.575, 392.643 135 C 392.181 105.121, 391.623 101.757, 384.908 88.321 C 377.235 72.969, 363.096 60.777, 346.631 55.314 C 338.781 52.710, 337.619 52.607, 313 52.320 C 290.489 52.058, 286.680 52.246, 280.500 53.920 M 74.225 75.522 C 52.515 80.237, 35.498 96.961, 30.430 118.565 C 28.040 128.751, 28.929 144.932, 32.458 155.500 C 38.225 172.767, 54.282 201.445, 72.772 227.500 C 83.927 243.219, 84.675 244, 88.564 244 C 92.895 244, 94.551 242.394, 104.026 229 C 121.172 204.761, 136.215 178.779, 142.815 162 C 149.827 144.176, 150.686 128.855, 145.535 113.508 C 142.018 103.032, 138.740 97.641, 131.545 90.500 C 117.762 76.820, 95.289 70.947, 74.225 75.522 M 75.887 90.397 C 58.580 95.371, 46.712 108.794, 43.967 126.500 C 42.036 138.953, 45.116 151.200, 55.020 170.457 C 63.567 187.076, 87.006 224.087, 88.903 223.960 C 89.231 223.938, 92.200 220.002, 95.500 215.213 C 112.279 190.864, 126.014 166.119, 130.945 151.352 C 139.660 125.256, 128.838 99.785, 105.500 91.466 C 99.046 89.166, 82.278 88.561, 75.887 90.397 M 78.205 100.894 C 64.310 105.694, 55.514 120.558, 57.929 135.158 C 60.434 150.299, 72.881 161.161, 87.951 161.357 C 110.007 161.643, 124.772 141.927, 118.545 120.505 C 117.151 115.711, 115.735 113.565, 110.673 108.571 C 101.164 99.190, 90.463 96.660, 78.205 100.894 M 81.841 115.344 C 77.653 117.205, 75.206 119.894, 73.404 124.613 C 70.352 132.603, 73.801 141.224, 81.566 145.015 C 97.267 152.681, 112.257 134.590, 102 120.355 C 97.969 114.760, 88.468 112.399, 81.841 115.344 M 377.893 179.320 C 367.035 184.895, 367.306 200.581, 378.353 205.929 C 383.814 208.572, 386.517 208.537, 392.015 205.750 C 397.438 203.001, 400.337 198.342, 400.249 192.518 C 400.070 180.685, 388.518 173.865, 377.893 179.320 M 370.500 238.552 C 350.880 242.243, 333.821 254.790, 325.937 271.329 C 319.992 283.801, 318.686 290.276, 319.256 304.467 C 319.636 313.952, 320.306 318.194, 322.417 324.500 C 325.925 334.977, 335.033 353.810, 343.445 367.981 C 356.128 389.348, 377.619 420.256, 380.584 421.394 C 383.449 422.493, 386.624 422.027, 388.365 420.250 C 394.252 414.241, 418.124 378.957, 426.974 363.184 C 443.492 333.747, 449.830 314.667, 448.651 297.933 C 446.936 273.581, 434.649 254.282, 414.644 244.517 C 401.051 237.882, 385.342 235.759, 370.500 238.552 M 370.500 253.892 C 358.254 256.944, 348.456 263.570, 342.090 273.103 C 332.684 287.188, 330.887 303.622, 336.851 321 C 340.664 332.107, 351.677 353.686, 361.860 370 C 369.436 382.137, 383.154 401.950, 384 401.977 C 384.728 402.001, 405.853 370.035, 412.007 359.600 C 420.429 345.317, 429.801 325.138, 431.982 316.590 C 436.652 298.288, 432.718 280.436, 421.275 268 C 414.698 260.853, 407.352 256.520, 397.572 254.018 C 388.073 251.589, 379.893 251.551, 370.500 253.892 M 377.932 265.009 C 367.816 266.722, 357.074 275.058, 352.940 284.403 C 348.852 293.645, 349.511 305.752, 354.586 314.634 C 358.003 320.614, 366.178 327.555, 372.280 329.658 C 387.847 335.024, 404.294 328.897, 412.935 314.512 C 415.938 309.512, 416.424 307.753, 416.804 300.514 C 417.542 286.460, 411.969 275.545, 400.813 269.195 C 396.502 266.740, 385.539 263.604, 383.066 264.118 C 382.755 264.182, 380.444 264.583, 377.932 265.009 M 82.415 274.366 C 74.364 278.016, 71.194 288.933, 75.966 296.575 C 80.641 304.059, 92.201 305.594, 98.845 299.611 C 106.026 293.146, 105.522 281.322, 97.824 275.681 C 94.429 273.193, 86.497 272.516, 82.415 274.366 M 378.393 279.794 C 377.235 280.183, 374.640 281.625, 372.628 283 C 361.555 290.568, 363.069 308.982, 375.250 314.879 C 389.606 321.829, 406.014 309.054, 402.066 294 C 400.515 288.085, 398.757 285.529, 394.134 282.470 C 390.160 279.840, 382.264 278.498, 378.393 279.794" stroke="none" fill="#000000" fill-rule="evenodd"/>
</svg>