<?xml version="1.0" standalone="no"?>
<!DOCTYPE svg PUBLIC "-//W3C//DTD SVG 20010904//EN"
 "http://www.w3.org/TR/2001/REC-SVG-20010904/DTD/svg10.dtd">
<svg version="1.0" xmlns="http://www.w3.org/2000/svg"
 width="300.000000pt" height="300.000000pt" viewBox="0 0 300.000000 300.000000"
 preserveAspectRatio="xMidYMid meet">
<metadata>
Created by potrace 1.10, written by Peter Selinger 2001-2011
</metadata>
<g transform="translate(0.000000,300.000000) scale(0.100000,-0.100000)"
fill="#000000" stroke="none">
<path d="M952 2010 c-281 -13 -536 -32 -554 -42 -24 -12 -23 -37 2 -63 20 -21
20 -21 -6 -59 -15 -21 -48 -81 -75 -132 -48 -92 -49 -96 -49 -184 0 -77 -3
-95 -22 -120 -30 -41 -35 -124 -11 -169 26 -49 72 -68 226 -94 l136 -22 28
-55 c85 -162 331 -157 400 7 14 35 15 35 60 29 25 -3 267 -6 538 -6 l492 0 30
-48 c90 -145 321 -130 389 24 12 29 17 31 79 37 41 4 83 15 108 29 36 20 43
30 54 73 14 63 16 206 3 276 -7 40 -17 60 -40 79 -51 44 -192 81 -457 121
-125 18 -139 23 -177 53 -122 99 -326 210 -443 240 -128 34 -355 42 -711 26z
m658 -76 c125 -25 333 -135 475 -249 36 -29 53 -35 155 -49 239 -34 434 -81
465 -112 28 -29 18 -44 -28 -44 -89 0 -128 -91 -65 -150 16 -14 35 -20 70 -20
l49 0 -7 -47 c-3 -27 -12 -54 -18 -61 -7 -7 -41 -18 -77 -26 l-64 -13 -7 36
c-10 54 -23 84 -54 120 -34 40 -116 81 -163 81 -116 0 -230 -103 -231 -208 l0
-33 -530 2 c-522 2 -530 2 -530 22 0 48 -27 104 -71 148 -101 102 -252 87
-340 -33 -16 -22 -31 -56 -35 -75 l-7 -35 -46 6 c-145 20 -225 40 -248 62 -27
27 -30 71 -8 114 15 28 18 29 98 32 l82 3 -1 37 c-1 43 -41 102 -86 127 -63
35 -62 30 -22 106 20 39 57 102 81 142 33 53 43 78 38 94 -4 12 -3 19 2 16 5
-3 70 -1 144 4 400 31 837 32 979 3z m-1231 -433 c33 -31 42 -57 15 -47 -9 3
-27 6 -40 6 -21 0 -24 5 -24 35 0 43 9 44 49 6z m2351 -109 c0 -26 -2 -27 -40
-24 -43 4 -55 14 -46 37 3 10 20 15 46 15 37 0 40 -2 40 -28z m-1858 -62 c46
-13 105 -77 114 -125 13 -71 -30 -155 -92 -181 -170 -71 -312 138 -181 266 46
45 95 57 159 40z m1555 -26 c19 -14 40 -36 49 -49 41 -63 21 -164 -44 -213
-30 -23 -45 -27 -98 -27 -48 0 -69 5 -90 21 -72 53 -92 131 -55 207 45 94 158
122 238 61z"/>
<path d="M690 1889 l-115 -9 -36 -40 c-47 -51 -94 -142 -86 -164 6 -15 28 -16
229 -14 l223 3 8 95 c4 52 5 105 2 118 -6 25 -19 26 -225 11z m166 -80 c-3
-17 -6 -44 -6 -60 l0 -29 -160 0 c-88 0 -160 3 -160 6 0 3 14 25 31 49 31 43
32 44 103 49 39 4 87 8 106 9 95 10 93 10 86 -24z"/>
<path d="M963 1885 c-7 -21 2 -198 11 -214 5 -8 67 -11 201 -11 227 0 208 -14
203 140 l-3 95 -203 3 c-177 2 -203 0 -209 -13z m357 -105 l0 -60 -150 0 -150
0 0 60 0 60 150 0 150 0 0 -60z"/>
<path d="M1433 1888 c-6 -8 -8 -55 -4 -118 l6 -105 130 -7 c72 -4 193 -12 270
-17 119 -9 142 -8 154 4 13 13 12 18 -9 40 -35 38 -175 125 -251 157 -116 49
-275 73 -296 46z m211 -80 c63 -21 221 -97 214 -103 -3 -3 -361 15 -364 19 -1
0 -4 27 -6 59 l-5 58 51 -7 c27 -3 77 -15 110 -26z"/>
<path d="M999 1544 c-25 -30 1 -49 66 -49 43 0 60 4 68 17 19 29 -8 48 -68 48
-36 0 -57 -5 -66 -16z"/>
<path d="M1469 1544 c-25 -30 1 -49 66 -49 43 0 60 4 68 17 19 29 -8 48 -68
48 -36 0 -57 -5 -66 -16z"/>
</g>
</svg>
