<?xml version="1.0" standalone="no"?>
<!DOCTYPE svg PUBLIC "-//W3C//DTD SVG 20010904//EN"
 "http://www.w3.org/TR/2001/REC-SVG-20010904/DTD/svg10.dtd">
<svg version="1.0" xmlns="http://www.w3.org/2000/svg"
 width="300.000000pt" height="300.000000pt" viewBox="0 0 300.000000 300.000000"
 preserveAspectRatio="xMidYMid meet">
<metadata>
Created by potrace 1.10, written by Peter Selinger 2001-2011
</metadata>
<g transform="translate(0.000000,300.000000) scale(0.100000,-0.100000)"
fill="#000000" stroke="none">
<path d="M430 2723 l0 -168 -215 3 c-209 3 -215 2 -215 -17 0 -17 8 -20 47
-23 26 -2 48 -9 51 -15 2 -7 -3 -13 -11 -13 -8 0 -18 -10 -23 -22 -11 -34 -17
-920 -9 -1397 7 -386 9 -415 26 -432 11 -11 19 -21 19 -24 0 -3 -22 -5 -50 -5
-43 0 -50 -3 -50 -20 0 -20 7 -20 920 -20 506 0 923 0 928 0 4 0 8 20 10 45
l3 45 -886 0 -885 0 2 901 3 900 313 -1 312 -1 0 216 0 215 -145 0 -145 0 0
-167z m93 120 c8 -7 -31 -53 -45 -53 -13 0 -9 48 5 53 18 8 33 8 40 0z m138
-3 c19 -11 27 -50 9 -50 -5 0 -20 11 -34 24 -21 22 -21 29 2 35 2 1 12 -4 23
-9z m-37 -163 l1 -117 -52 0 -53 0 0 121 0 120 51 -3 51 -3 2 -118z m-108
-169 c-13 -9 -59 -10 -80 -2 -13 5 -11 10 9 32 14 15 25 31 25 37 0 5 13 -6
29 -25 20 -24 25 -37 17 -42z m161 18 c-4 -9 -18 -16 -33 -16 l-27 0 23 25
c25 26 48 20 37 -9z"/>
<path d="M1828 2725 l3 -165 -491 0 -490 0 0 -50 0 -50 800 2 800 3 0 -137 0
-138 -1110 0 -1110 0 0 -47 0 -48 1155 2 1156 3 2 230 2 230 -218 0 -218 0 3
165 3 165 -145 0 -145 0 3 -165z m89 117 c8 -5 4 -15 -12 -35 -13 -15 -27 -27
-30 -27 -11 0 -4 59 8 63 17 8 21 8 34 -1z m137 2 c11 -4 16 -19 15 -48 0 -31
-2 -36 -9 -21 -4 11 -17 30 -29 42 -14 15 -17 23 -8 26 7 3 13 6 14 6 1 1 8
-2 17 -5z m-34 -166 l0 -123 -50 3 -50 4 0 119 0 119 50 0 50 0 0 -122z m87
-170 c-15 -9 -60 -10 -81 -2 -14 5 -12 11 11 39 l28 33 27 -31 c18 -22 23 -34
15 -39z m-200 33 l23 -29 -31 -6 c-17 -3 -42 -3 -55 0 l-24 6 23 29 c28 35 36
35 64 0z m591 -213 l2 -188 -31 0 -31 0 26 31 c25 29 26 35 26 158 0 124 -1
128 -25 149 -29 25 -24 45 8 40 22 -3 22 -7 25 -190z"/>
<path d="M2450 1536 l0 -423 -52 -6 c-30 -4 -85 -23 -127 -43 -191 -95 -305
-308 -274 -519 29 -203 188 -379 383 -424 66 -15 177 -13 245 4 164 43 313
187 355 343 6 24 14 50 17 58 10 26 -16 15 -31 -13 -8 -16 -16 -26 -16 -23 -1
3 -3 59 -4 126 l-2 121 22 -26 c12 -14 25 -24 28 -20 9 9 -31 126 -60 176 -73
125 -212 222 -344 242 l-45 6 0 423 0 422 -47 0 -48 0 0 -424z m97 -463 c-7
-6 -97 -5 -99 2 0 4 10 20 23 34 l24 26 27 -30 c14 -16 26 -31 25 -32z m11
-53 c329 -54 464 -446 238 -688 -92 -98 -239 -148 -367 -124 -270 50 -418 331
-305 578 53 115 185 216 308 234 29 4 55 8 58 9 3 0 33 -4 68 -9z"/>
<path d="M2450 728 l0 -163 161 2 162 2 1 45 1 46 -118 0 -118 0 3 115 3 115
-47 0 -48 0 0 -162z m79 -89 l24 -31 -29 4 c-23 2 -30 9 -32 31 -4 35 7 34 37
-4z"/>
<path d="M920 1810 l0 -140 140 0 140 0 0 140 0 140 -140 0 -140 0 0 -140z
m78 60 c-36 -36 -38 -37 -38 -7 0 30 7 37 41 37 l27 0 -30 -30z m153 23 c3
-46 4 -161 1 -170 -5 -14 -52 -18 -52 -5 0 5 9 17 20 27 14 13 20 31 20 62 0
30 -6 49 -20 63 -11 11 -20 22 -20 25 0 8 50 6 51 -2z m-51 -83 l0 -50 -45 0
-45 0 0 44 0 45 43 4 c23 2 43 4 45 5 1 1 2 -20 2 -48z m-95 -77 c16 -24 16
-24 -12 -21 -22 2 -29 9 -31 30 -4 34 18 29 43 -9z"/>
<path d="M1350 1810 l0 -140 138 0 137 0 0 140 0 140 -137 0 -138 0 0 -140z
m89 71 c-7 -10 -20 -23 -30 -30 -17 -10 -19 -8 -19 19 0 27 3 30 30 30 27 0
29 -2 19 -19z m141 -11 c0 -30 0 -30 -20 -10 -11 11 -24 20 -30 20 -5 0 -10 5
-10 10 0 6 14 10 30 10 27 0 30 -3 30 -30z m-50 -62 l0 -48 -45 0 -45 0 0 48
0 47 45 0 45 0 0 -47z m-107 -58 c23 -28 21 -42 -5 -38 -17 2 -24 11 -26 31
-4 32 7 35 31 7z m153 -26 c-6 -15 -46 -20 -46 -6 0 5 10 19 22 32 20 22 23
22 26 7 2 -10 1 -25 -2 -33z"/>
<path d="M1778 1810 l-3 -140 140 0 140 0 0 140 0 140 -137 0 -137 0 -3 -140z
m102 86 c0 -1 -13 -17 -30 -34 l-30 -32 0 28 c0 16 3 32 7 35 6 7 53 10 53 3z
m130 -28 l0 -33 -24 27 c-12 15 -27 24 -31 20 -5 -4 -5 -1 -1 6 4 6 18 12 32
12 20 0 24 -5 24 -32z m-50 -60 l0 -48 -45 0 -45 0 0 48 0 47 45 0 45 0 0 -47z
m-96 -73 c19 -18 19 -20 3 -23 -34 -7 -47 6 -47 45 1 33 2 36 12 18 6 -11 20
-29 32 -40z m142 -11 c-6 -16 -46 -20 -46 -4 0 5 10 20 23 32 20 21 22 21 25
5 2 -10 1 -25 -2 -33z"/>
<path d="M490 1380 l0 -140 140 0 140 0 0 140 0 140 -140 0 -140 0 0 -140z
m85 94 c14 -6 13 -9 -6 -30 -12 -13 -26 -24 -31 -24 -12 0 -10 34 4 48 14 14
12 14 33 6z m155 -34 c0 -26 -12 -25 -39 4 -17 18 -19 25 -9 29 21 7 48 -12
48 -33z m-50 -62 l0 -48 -50 0 -50 0 0 48 0 48 50 0 50 0 0 -48z m-113 -60
c28 -26 29 -38 5 -38 -23 0 -42 19 -42 42 0 24 9 23 37 -4z m163 4 c0 -23 -19
-42 -42 -42 -24 0 -23 9 4 37 26 28 38 29 38 5z"/>
<path d="M920 1380 l0 -140 140 0 140 0 0 140 0 140 -140 0 -140 0 0 -140z
m94 92 c3 -5 -8 -22 -24 -37 l-30 -29 0 25 c0 37 38 66 54 41z m136 -11 c5
-11 7 -27 4 -36 -6 -14 -10 -12 -29 12 -13 15 -21 31 -18 35 8 15 32 8 43 -11z
m-50 -83 l0 -48 -45 0 -45 0 0 48 0 49 45 0 45 0 0 -49z m60 -57 c0 -22 -19
-41 -42 -41 -23 0 -23 6 5 40 23 29 37 30 37 1z m-163 -3 c30 -28 29 -40 -4
-36 -22 2 -29 9 -31 31 -4 33 4 34 35 5z"/>
<path d="M1350 1380 l0 -140 138 0 137 0 0 140 0 140 -137 0 -138 0 0 -140z
m88 92 c9 -6 4 -16 -18 -37 l-30 -29 0 25 c0 23 16 49 30 49 3 0 11 -4 18 -8z
m142 -36 l0 -31 -24 30 c-15 19 -20 32 -13 37 20 12 37 -4 37 -36z m-50 -58
l0 -48 -45 0 -45 0 0 48 0 49 45 0 45 0 0 -49z m-106 -63 c21 -21 23 -27 11
-31 -25 -10 -45 4 -45 31 0 31 3 31 34 0z m152 -21 c-5 -14 -46 -20 -46 -7 0
4 10 18 23 31 18 20 23 21 25 7 2 -9 1 -23 -2 -31z"/>
<path d="M1775 1380 l0 -140 140 0 140 0 0 140 0 140 -140 0 -140 0 0 -140z
m95 87 c0 -12 -34 -47 -45 -47 -7 0 -6 46 2 53 11 12 43 8 43 -6z m138 -27 l4
-35 -31 29 c-33 31 -32 49 2 44 17 -2 23 -11 25 -38z m-48 -62 l0 -48 -45 0
-45 0 0 48 0 49 45 -1 45 -1 0 -47z m-90 -94 c0 -3 -10 -4 -22 -2 -19 2 -24
10 -26 43 l-4 40 26 -38 c14 -21 26 -40 26 -43z m136 10 c-5 -13 -46 -21 -46
-9 0 3 10 20 23 36 21 29 22 30 25 9 2 -12 1 -28 -2 -36z"/>
<path d="M490 950 l0 -140 140 0 140 0 0 140 0 140 -140 0 -140 0 0 -140z m93
92 c3 -4 -3 -18 -14 -30 -18 -23 -39 -22 -39 2 0 26 41 48 53 28z m141 -14 c8
-13 7 -21 -1 -29 -8 -8 -16 -5 -32 12 -11 13 -21 27 -21 32 0 15 42 3 54 -15z
m-44 -78 l0 -50 -50 0 -50 0 0 43 c0 24 3 47 7 50 3 4 26 7 50 7 l43 0 0 -50z
m-113 -62 c28 -26 29 -38 3 -33 -31 6 -40 14 -40 36 0 25 8 24 37 -3z m163 3
c0 -24 -25 -45 -45 -37 -14 5 -14 9 2 31 21 29 43 32 43 6z"/>
<path d="M920 950 l0 -140 140 0 140 0 0 140 0 140 -140 0 -140 0 0 -140z m83
68 c-35 -35 -49 -33 -39 7 5 20 12 25 38 25 l33 0 -32 -32z m146 18 c8 -9 8
-25 2 -52 -7 -30 -9 -33 -10 -13 -1 14 -10 34 -21 44 -11 10 -20 22 -20 27 0
13 37 9 49 -6z m-49 -86 l0 -50 -45 0 -45 0 0 50 0 50 45 0 45 0 0 -50z m-86
-82 c14 -9 -20 -22 -39 -14 -15 5 -21 47 -8 59 3 4 13 -3 22 -16 8 -12 19 -25
25 -29z m146 23 c0 -24 -26 -45 -46 -37 -13 5 -12 10 8 35 25 30 38 31 38 2z"/>
<path d="M1350 950 l0 -140 138 0 137 0 0 140 0 140 -137 0 -138 0 0 -140z
m100 93 c0 -10 -42 -53 -52 -53 -13 0 -9 48 5 53 18 8 47 8 47 0z m128 -23 c2
-12 -1 -27 -7 -33 -8 -8 -11 -6 -11 6 0 10 -7 20 -15 23 -24 10 -18 34 8 30
14 -2 23 -11 25 -26z m-48 -70 l0 -50 -45 0 -45 0 0 50 0 50 45 0 45 0 0 -50z
m-90 -70 c5 0 7 -7 3 -16 -3 -8 -15 -14 -27 -12 -16 2 -22 11 -24 38 l-3 35
21 -22 c11 -13 25 -23 30 -23z m136 -16 c-7 -19 -42 -18 -50 1 -3 9 0 15 9 15
8 0 20 9 27 20 l13 21 3 -21 c2 -12 1 -28 -2 -36z"/>
</g>
</svg>
